<?xml version="1.0" encoding="UTF-8"?>
<!DOCTYPE svg PUBLIC "-//W3C//DTD SVG 1.1//EN" "http://www.w3.org/Graphics/SVG/1.1/DTD/svg11.dtd">
<!-- Creator: CorelDRAW -->
<svg xmlns="http://www.w3.org/2000/svg" xml:space="preserve" width="1.66666in" height="1.66666in" version="1.1" style="shape-rendering:geometricPrecision; text-rendering:geometricPrecision; image-rendering:optimizeQuality; fill-rule:evenodd; clip-rule:evenodd"
viewBox="0 0 1666.66 1666.66"
 xmlns:xlink="http://www.w3.org/1999/xlink"
 xmlns:xodm="http://www.corel.com/coreldraw/odm/2003">
 <defs>
  <style type="text/css">
   <![CDATA[
    .fil0 {fill:#1A202C}
    .fil2 {fill:#EA7E20}
    .fil1 {fill:white}
    .fil3 {fill:#EA7E20;fill-rule:nonzero}
   ]]>
  </style>
 </defs>
 <g id="Layer_x0020_1">
  <metadata id="CorelCorpID_0Corel-Layer"/>
  <rect class="fil0" x="-0.01" y="-0" width="1666.67" height="1666.67" rx="314.17" ry="314.17"/>
  <g id="_2264893850736">
   <path class="fil1" d="M567.72 1245.41c-116.72,0 -214.32,-40.85 -298.37,-124.9 -84.05,-84.05 -124.91,-181.65 -124.91,-298.37 0,-115.1 42.02,-215.5 124.98,-298.45 81.76,-82.83 182.12,-124.83 298.29,-124.83 116.72,0 214.32,40.86 298.45,124.99 22.62,22.33 39.75,43.37 53.97,64.42 69.57,102.99 137.36,270.21 194.92,385.81l146.47 -291.71 80.15 -160.07c-23.52,10.85 -23.36,10.67 -51.83,22.46l-60.69 121.39 -114.76 226.65c-49.13,-98.69 -103.83,-233.55 -162.87,-322.79 -15.34,-23.19 -34.12,-46.47 -59.82,-71.85 -44.76,-44.75 -94.45,-78.82 -147.71,-101.26 -53.94,-22.73 -113.24,-34.25 -176.28,-34.25 -126.21,0 -235.24,45.62 -323.98,135.52 -89.91,89.92 -135.51,198.93 -135.51,323.98 0,63.03 11.52,122.34 34.25,176.28 22.44,53.25 56.51,102.95 101.26,147.7 44.76,44.76 94.45,78.83 147.71,101.26 53.94,22.73 113.24,34.25 176.28,34.25 63.03,0 122.34,-11.52 176.28,-34.25 41.59,-17.52 81,-42.17 117.58,-73.43 -7.37,-9.55 -14.63,-19.22 -21.76,-29 -77.99,67.52 -167.33,100.46 -272.1,100.46z"/>
   <path class="fil2" d="M761.78 1017.5c-53.49,53.21 -116.97,79.09 -194.06,79.09 -70.63,0 -131.87,-22.56 -182.31,-67.06 -8.63,8.54 -17.52,16.79 -26.77,24.68 57.69,52.17 127.94,78.6 209.07,78.6 82.18,0 153.33,-27.6 211.67,-82.01 -6.16,-10.95 -12.04,-22.06 -17.61,-33.3z"/>
   <path class="fil1" d="M1505.27 442.76l-390.14 780.26c-89.42,-178.84 -178.35,-378.77 -274.98,-551.39 -56.33,-100.64 -155.92,-161.13 -272.42,-161.13 -86.25,0 -160.73,30.75 -221.36,91.38 -0.79,0.79 -1.56,1.61 -2.34,2.4 7.26,8.7 14.56,17.36 21.95,25.95 1.02,0.08 2.05,0.16 3.07,0.26 0.97,-1 1.94,-2 2.93,-3 54.35,-54.35 118.37,-80.77 195.75,-80.77 103.36,0 190.57,53.41 240.67,142.42 107.77,191.48 207.29,415.97 306.74,614.88l443.3 -886.59c-17.74,8.42 -35.45,16.87 -53.16,25.33z"/>
   <g>
    <path class="fil3" d="M448.62 814.98l-30.68 0 0 0 0.2 -7.76 0.58 -7.66 0.96 -7.56 1.33 -7.45 1.69 -7.31 2.04 -7.17 2.38 -7.03 2.71 -6.87 3.02 -6.69 3.34 -6.52 3.64 -6.33 3.93 -6.13 4.21 -5.92 4.48 -5.71 4.75 -5.48 5 -5.24 5.24 -5 5.48 -4.75 5.71 -4.48 5.92 -4.21 6.13 -3.93 6.33 -3.64 6.52 -3.34 6.69 -3.02 6.87 -2.71 7.03 -2.38 7.17 -2.04 7.31 -1.69 7.45 -1.33 7.56 -0.96 7.66 -0.58 7.76 -0.2 0 30.68 -6.21 0.16 -6.13 0.47 -6.03 0.76 -5.91 1.06 -5.82 1.35 -5.71 1.62 -5.58 1.89 -5.46 2.16 -5.33 2.41 -5.19 2.65 -5.04 2.9 -4.89 3.13 -4.72 3.36 -4.55 3.57 -4.37 3.78 -4.19 3.99 -3.99 4.19 -3.78 4.37 -3.57 4.55 -3.36 4.72 -3.13 4.88 -2.9 5.04 -2.65 5.19 -2.41 5.33 -2.16 5.46 -1.89 5.58 -1.62 5.71 -1.35 5.82 -1.06 5.92 -0.76 6.03 -0.47 6.13 -0.16 6.21 0 0zm72.19 125.23l-29.1 -9.71 7.45 18.45 -4.48 -2.44 -4.39 -2.59 -4.29 -2.72 -4.19 -2.86 -4.09 -3 -3.98 -3.13 -3.87 -3.26 -3.76 -3.38 -3.65 -3.51 -3.52 -3.63 -3.4 -3.74 -3.28 -3.86 -3.15 -3.96 -3.02 -4.07 -2.89 -4.18 -2.75 -4.28 -2.6 -4.37 -2.46 -4.46 -2.32 -4.56 -2.16 -4.65 -2.01 -4.73 -1.85 -4.81 -1.69 -4.89 -1.52 -4.96 -1.36 -5.04 -1.19 -5.1 -1.02 -5.17 -0.83 -5.23 -0.66 -5.27 -0.47 -5.34 -0.28 -5.38 -0.09 -5.43 30.68 0 0.08 4.35 0.23 4.3 0.38 4.25 0.52 4.22 0.66 4.16 0.81 4.11 0.94 4.07 1.08 4 1.22 3.95 1.34 3.89 1.47 3.82 1.6 3.77 1.72 3.7 1.84 3.62 1.97 3.57 2.07 3.48 2.19 3.41 2.3 3.33 2.41 3.24 2.51 3.17 2.62 3.08 2.72 2.98 2.81 2.89 2.91 2.79 3 2.7 3.09 2.6 3.18 2.5 3.26 2.39 3.34 2.28 3.42 2.17 3.5 2.06 3.57 1.94 7.45 18.45zm-7.45 -18.45l11.58 6.05 -4.13 12.4 -7.45 -18.45zm-72.67 161.71l51.02 -152.97 29.1 9.71 -51.02 152.97 -22.22 8.43 -6.88 -18.14zm6.88 18.14l-10.84 -6.26 3.96 -11.88 6.88 18.14zm122.37 -1.01l-0.76 30.67 0 0 -4.16 -0.13 -4.17 -0.18 -4.16 -0.24 -4.15 -0.29 -4.14 -0.34 -4.13 -0.39 -4.12 -0.44 -4.1 -0.49 -4.09 -0.54 -4.07 -0.59 -4.06 -0.65 -4.02 -0.7 -4 -0.74 -3.98 -0.8 -3.94 -0.85 -3.91 -0.9 -3.88 -0.95 -3.83 -1 -3.81 -1.05 -3.75 -1.1 -3.71 -1.15 -3.67 -1.2 -3.63 -1.25 -3.57 -1.31 -3.52 -1.36 -3.47 -1.41 -3.42 -1.47 -3.35 -1.52 -3.3 -1.57 -3.24 -1.63 -3.17 -1.69 -3.1 -1.74 15.34 -26.57 2.48 1.4 2.56 1.36 2.64 1.33 2.72 1.3 2.8 1.27 2.87 1.23 2.94 1.2 3.01 1.16 3.07 1.12 3.13 1.09 3.2 1.05 3.25 1.01 3.3 0.97 3.34 0.93 3.41 0.88 3.44 0.85 3.48 0.8 3.53 0.76 3.55 0.71 3.59 0.67 3.63 0.63 3.65 0.58 3.67 0.54 3.7 0.49 3.72 0.44 3.74 0.4 3.75 0.35 3.76 0.31 3.77 0.26 3.78 0.21 3.77 0.17 3.78 0.12 0 0zm95.94 -2.66l29.31 -9.04 -6.99 17.8 -3.06 1.72 -3.13 1.64 -3.18 1.57 -3.24 1.5 -3.31 1.44 -3.35 1.37 -3.41 1.31 -3.45 1.24 -3.51 1.19 -3.56 1.11 -3.58 1.06 -3.64 1 -3.69 0.94 -3.71 0.88 -3.76 0.83 -3.79 0.77 -3.82 0.72 -3.85 0.66 -3.87 0.6 -3.9 0.55 -3.93 0.5 -3.96 0.44 -3.97 0.39 -3.99 0.34 -4.02 0.28 -4.02 0.22 -4.03 0.18 -4.05 0.13 -4.05 0.07 -4.07 0.03 -4.07 -0.03 -4.07 -0.07 0.76 -30.67 3.69 0.07 3.69 0.03 3.67 -0.03 3.68 -0.07 3.65 -0.12 3.65 -0.16 3.62 -0.21 3.6 -0.25 3.58 -0.3 3.56 -0.35 3.52 -0.39 3.49 -0.44 3.47 -0.49 3.44 -0.54 3.39 -0.58 3.35 -0.62 3.31 -0.67 3.26 -0.72 3.21 -0.76 3.16 -0.81 3.1 -0.85 3.06 -0.9 2.99 -0.94 2.92 -0.99 2.87 -1.03 2.79 -1.07 2.73 -1.11 2.65 -1.15 2.57 -1.2 2.51 -1.24 2.42 -1.27 2.34 -1.31 -6.99 17.8zm29.31 -9.04l3.61 11.69 -10.59 6.11 6.99 -17.8zm-48.75 -158.06l48.75 158.06 -29.31 9.04 -48.75 -158.06 7.56 -18.12 21.76 9.08zm-29.31 9.04l-3.76 -12.2 11.32 -5.91 -7.56 18.12zm72.3 -124.9l30.68 0 0 0 -0.09 5.43 -0.28 5.38 -0.47 5.34 -0.66 5.27 -0.83 5.23 -1.02 5.17 -1.19 5.1 -1.36 5.04 -1.52 4.96 -1.69 4.89 -1.85 4.81 -2.01 4.73 -2.16 4.65 -2.32 4.56 -2.46 4.46 -2.6 4.37 -2.75 4.28 -2.89 4.18 -3.02 4.07 -3.15 3.96 -3.28 3.86 -3.4 3.74 -3.52 3.63 -3.65 3.51 -3.76 3.38 -3.87 3.26 -3.98 3.13 -4.09 3 -4.19 2.86 -4.29 2.72 -4.39 2.59 -4.48 2.44 -14.2 -27.2 3.57 -1.94 3.5 -2.06 3.42 -2.17 3.34 -2.28 3.26 -2.39 3.18 -2.5 3.09 -2.6 3 -2.7 2.91 -2.79 2.81 -2.89 2.72 -2.98 2.62 -3.08 2.51 -3.17 2.41 -3.24 2.3 -3.33 2.19 -3.41 2.07 -3.48 1.97 -3.57 1.84 -3.62 1.72 -3.7 1.6 -3.77 1.47 -3.82 1.34 -3.89 1.22 -3.95 1.08 -4 0.94 -4.07 0.81 -4.11 0.66 -4.16 0.52 -4.22 0.38 -4.25 0.23 -4.3 0.08 -4.35 0 0zm-120.41 -120.41l0 -30.68 0 0 7.76 0.2 7.66 0.58 7.56 0.96 7.45 1.33 7.31 1.69 7.17 2.04 7.03 2.38 6.87 2.71 6.69 3.02 6.52 3.34 6.33 3.65 6.12 3.93 5.92 4.21 5.71 4.48 5.48 4.75 5.24 5 5 5.24 4.75 5.48 4.48 5.71 4.21 5.92 3.93 6.12 3.65 6.33 3.34 6.52 3.02 6.69 2.71 6.87 2.38 7.03 2.04 7.17 1.69 7.31 1.33 7.44 0.96 7.57 0.58 7.66 0.2 7.76 -30.68 0 -0.16 -6.21 -0.47 -6.13 -0.76 -6.02 -1.06 -5.93 -1.35 -5.82 -1.62 -5.71 -1.89 -5.58 -2.16 -5.46 -2.41 -5.33 -2.65 -5.19 -2.9 -5.04 -3.14 -4.89 -3.36 -4.73 -3.57 -4.55 -3.78 -4.37 -3.99 -4.19 -4.19 -3.99 -4.37 -3.78 -4.55 -3.57 -4.73 -3.36 -4.89 -3.14 -5.04 -2.9 -5.19 -2.65 -5.33 -2.41 -5.46 -2.16 -5.58 -1.89 -5.71 -1.62 -5.82 -1.35 -5.92 -1.06 -6.03 -0.76 -6.13 -0.47 -6.21 -0.16 0 0z"/>
   </g>
  </g>
 </g>
</svg>
